<svg version="1.0" xmlns="http://www.w3.org/2000/svg" width="512px" height="512px" viewBox="0 0 512 512" preserveAspectRatio="xMidYMid meet">
 <g fill="#FFFFFF">
  <path d="M122.15 399.95 c-5.60 -1.10 -9.80 -4.30 -12.30 -9.40 l-1.60 -3.30 -0.15 -15.35 -0.15 -15.40 4 0 3.95 0 0.20 14.15 c0.15 13.65 0.20 14.20 1.35 16.50 2.70 5.50 10.35 7.20 14.85 3.25 3.45 -3 3.45 -3.05 3.60 -19.25 l0.15 -14.65 4 0 4 0 -0.15 15.65 -0.15 15.60 -1.35 2.80 c-3.65 7.40 -11.65 11.15 -20.25 9.40z"/>
  <path d="M265 399.95 c-9.35 -1.55 -17.15 -9.50 -18.65 -18.90 -1.65 -10.95 6 -21.95 17.15 -24.50 9.45 -2.20 19.80 1.50 24.85 8.85 3 4.45 3.85 7.60 3.55 13.80 -0.30 6.25 -1.55 9.30 -5.55 13.60 -3.30 3.60 -7.50 5.95 -12.20 6.95 -3.80 0.80 -5.15 0.85 -9.15 0.20z m10.75 -8.80 c4.95 -2.60 7.70 -7.30 7.75 -13.15 0 -4.70 -1.40 -7.95 -4.65 -10.80 -5.85 -5.15 -15.05 -4.65 -20.40 1.15 -2.75 3 -3.60 5.20 -3.65 9.40 -0.05 6.40 3.70 11.85 9.65 14.10 2.65 1 8.80 0.60 11.30 -0.70z"/>
  <path d="M25.60 398.75 c-2.05 -0.70 -4.90 -2.05 -6.40 -3 -3.05 -2 -3.05 -2 -0.05 -6 0.85 -1.10 1.60 -2.05 1.65 -2.15 0.05 -0.10 1.30 0.65 2.70 1.60 3.20 2.20 6.75 3.30 10.60 3.30 4.75 0 6.90 -1.60 6.90 -5.15 0 -2.60 -1.60 -3.70 -8.60 -5.80 -6.90 -2.10 -9 -3.05 -11.05 -5 -2.30 -2.05 -3.35 -4.65 -3.35 -7.90 0.05 -6.95 5.25 -11.80 13.40 -12.50 5.05 -0.40 12.10 1.45 15.25 3.95 l1.40 1.15 -1.85 2.75 c-1 1.50 -1.90 2.85 -2 2.90 -0.05 0.10 -1.60 -0.50 -3.35 -1.40 -7.10 -3.50 -14.35 -2.15 -14.35 2.65 0 2.20 1.85 3.60 6.80 5.05 10.05 3 13.45 4.90 15.20 8.35 3.25 6.35 0.50 13.65 -6.40 17 -1.90 0.90 -3.40 1.15 -7.60 1.30 -4.60 0.15 -5.70 0 -8.90 -1.10z"/>
  <path d="M352.50 399.10 c-8.85 -2.95 -14.25 -9.10 -15.60 -17.80 -2.10 -13.75 8.20 -25.30 22.60 -25.30 5.25 0 11.45 2.05 15 4.90 1.15 0.95 1.15 1 0.35 2.15 -0.45 0.65 -1.45 1.95 -2.20 2.85 l-1.40 1.65 -3.50 -1.80 c-8.35 -4.30 -17.25 -1.95 -21 5.50 -1.30 2.55 -1.50 3.55 -1.45 6.75 0.05 5.85 2.80 10.45 7.85 13.10 2.95 1.55 10.65 1.65 13.60 0.15 l2 -1 0.15 -3.85 0.15 -3.90 -4.80 0 -4.75 0 0 -3.50 0 -3.50 8.75 0 8.75 0 0 9.20 0 9.20 -2.55 1.60 c-4.85 3.15 -8.15 4.20 -13.95 4.35 -4.05 0.10 -5.85 -0.05 -8 -0.75z"/>
  <path d="M75.15 399.15 l-2.15 -0.20 0 -17.50 0 -17.45 -6.50 0 -6.50 0 0 -3.75 0 -3.75 17 0 17 0 0 3.75 0 3.75 -6.50 0 -6.50 0 0 17.75 0 17.75 -1.85 -0.10 c-1.05 -0.05 -2.85 -0.15 -4 -0.25z"/>
  <path d="M163 378 l0 -21.50 9.40 0 c6.10 0 10.50 0.25 12.65 0.70 6.85 1.45 12.10 5.40 15 11.20 1.65 3.25 1.70 3.55 1.70 9.35 0 5.65 -0.10 6.20 -1.55 9.25 -2.65 5.60 -6.25 8.80 -12.50 11.10 -2.65 0.95 -4.15 1.10 -13.80 1.25 l-10.90 0.15 0 -21.50z m18.95 13.50 c8.20 -1.15 12.90 -8.45 11.05 -17.15 -0.80 -3.85 -3 -6.70 -6.70 -8.60 -2.80 -1.40 -3.25 -1.50 -9 -1.50 l-6.05 0 -0.15 13.25 c-0.05 7.30 0 13.50 0.15 13.85 0.25 0.80 5.90 0.85 10.70 0.15z"/>
  <path d="M396 377.85 l0 -21.40 4.10 0.15 4.10 0.15 6.75 11.10 c3.75 6.15 6.95 11.10 7.20 11 0.20 -0.05 3.35 -5.05 7 -11.10 l6.60 -11 4.15 -0.15 4.10 -0.15 0 21.30 0 21.25 -4 0 -4 0 0 -13.60 c-0.05 -12.35 -0.10 -13.55 -0.80 -12.65 -0.40 0.55 -3.15 5 -6.10 9.90 l-5.35 8.95 -2 -0.35 c-1.05 -0.15 -2 -0.35 -2 -0.40 -0.35 -0.75 -8.85 -14.75 -10.10 -16.60 l-1.65 -2.50 0 13.60 0 13.55 -4 0.20 -4 0.15 0 -21.40z"/>
  <path d="M459.35 399.20 c-0.45 -0.45 -0.45 -40.80 -0.05 -41.90 0.25 -0.65 1.10 -0.80 4.25 -0.80 l3.95 0 0 9 0 9 10 0 10 0 0 -9 0 -9 4.25 0 4.25 0 0 21.25 0 21.25 -4.25 0 -4.25 0 0 -8.50 0 -8.50 -10 0 -10 0 0 8.50 0 8.50 -3.20 0 c-1.75 0 -3.55 0.10 -3.90 0.25 -0.40 0.15 -0.85 0.10 -1.05 -0.05z"/>
  <path d="M220 381.15 c0 -9.85 0.15 -19.40 0.35 -21.25 l0.30 -3.40 4.15 0 4.20 0 0 21.25 0 21.25 -4.50 0 -4.50 0 0 -17.85z"/>
  <path d="M242.25 303.05 c-4.10 -2.40 -8.55 -5 -9.85 -5.75 l-2.40 -1.35 0 -76 0 -76.05 1.65 1.45 c2.70 2.40 46.40 46.50 47.20 47.60 0.40 0.60 1 1.05 1.35 1.05 0.35 0 4 -2.85 8.10 -6.35 4.15 -3.55 11.50 -9.75 16.45 -13.90 4.95 -4.10 12.15 -10.15 16 -13.40 l7 -5.95 0.25 35 0.25 34.95 6.80 -4.30 c3.75 -2.35 12.90 -8.10 20.35 -12.80 l13.55 -8.50 0.15 -18.45 0.15 -18.45 6.75 -5.15 c3.70 -2.85 8.40 -6.30 10.40 -7.70 l3.60 -2.55 0 63.40 -0.05 63.40 -9.85 6.75 c-5.40 3.70 -10.10 6.80 -10.45 6.90 -0.50 0.15 -0.65 -6.40 -0.75 -32.15 l-0.15 -32.30 -20.75 13.35 c-11.40 7.30 -25 16.05 -30.25 19.45 l-9.50 6.10 -0.15 -32.20 -0.10 -32.20 -3.15 2.65 c-2.90 2.50 -21.75 18.90 -24.25 21.10 l-1.15 1 -14.35 -14.35 c-7.90 -7.90 -14.50 -14.35 -14.75 -14.35 -0.20 0 -0.40 25.75 -0.45 57.25 l-0.15 57.20 -7.50 -4.40z"/>
  <path d="M209 284.05 c-9.70 -5.70 -27.15 -15.85 -59.50 -34.45 -4.55 -2.60 -11.85 -6.80 -16.25 -9.35 -4.40 -2.55 -8.95 -5.10 -10.10 -5.70 l-2.15 -1.05 0 -33.65 0.05 -33.60 11.35 -7.05 c15.60 -9.70 100.65 -62.75 109.80 -68.50 4.10 -2.60 7.75 -4.70 8.15 -4.70 0.50 0 0.65 1.80 0.60 8.90 -0.05 4.85 -0.20 10 -0.35 11.45 l-0.35 2.60 -7.75 4.85 c-4.25 2.65 -16.05 10.05 -26.25 16.45 -10.15 6.35 -23.65 14.80 -29.95 18.80 -6.35 3.95 -19.05 11.95 -28.25 17.70 l-16.80 10.50 -0.15 22.05 -0.10 22.10 2.35 1.50 c1.35 0.80 6.45 3.80 11.40 6.60 4.95 2.85 15.30 8.80 23.05 13.30 7.75 4.50 14.30 8.20 14.65 8.20 0.40 0 0.55 -5.20 0.55 -19.70 l0 -19.70 -5.60 -3.25 c-3.10 -1.75 -7.85 -4.40 -10.55 -5.85 -2.70 -1.45 -4.75 -2.80 -4.50 -3 0.20 -0.15 5.15 -3.15 10.90 -6.60 5.80 -3.50 14.80 -8.90 20 -12.05 l9.50 -5.80 0.15 28 c0.05 15.40 0.05 40.45 0 55.65 l-0.15 27.60 -3.75 -2.25z"/>
 </g>
</svg>